# xmcd CD database file
#
# Track frame offsets:
#	150
#	41379
#	68331
#	96835
#	124253
#	152306
#	191662
#
# Disc length: 2990 seconds
#
# Revision: 0
# Processed by: cddbd v1.5.2PL0 Copyright (c) Steve Scherf et al.
# Submitted via: CDex 1.51
#
DISCID=4d0bac07
DTITLE=Peter Kater - Light Body
DYEAR=2012
DGENRE=New Age
TTITLE0=Root Chakra
TTITLE1=Sacral Chakra
TTITLE2=Solar Plexus Chakra
TTITLE3=Heart Chakra
TTITLE4=Throat Chakra
TTITLE5=Intuitive Chakra
TTITLE6=Crown Charka
EXTD=YEAR: 2012
EXTT0=
EXTT1=
EXTT2=
EXTT3=
EXTT4=
EXTT5=
EXTT6=
PLAYORDER=
